<svg xmlns="http://www.w3.org/2000/svg" xmlns:xlink="http://www.w3.org/1999/xlink"><symbol id="icon-close" viewBox="0 0 8 8"><path d="M.342 7.859a.482.482 0 010-.682L7.175.355a.484.484 0 01.683.682L1.025 7.86a.484.484 0 01-.683 0z"/><path d="M.142.141a.484.484 0 01.683 0l6.833 6.822a.482.482 0 11-.683.682L.142.823a.482.482 0 010-.682z"/></symbol><symbol id="icon-lightning" viewBox="0 0 18 36"><path d="M3.057 35.897a1.12 1.12 0 01-.458-.555 1.687 1.687 0 01-.11-.82l5.056-15.236H.972a.74.74 0 01-.42-.117 1.053 1.053 0 01-.34-.357 1.514 1.514 0 01-.188-.524 1.736 1.736 0 01.001-.584L6.865.99c.05-.287.172-.543.344-.723A.795.795 0 017.812 0h6.801c.142 0 .281.042.409.125.128.082.24.202.33.351.09.151.154.328.187.517.032.19.033.386.002.576l-5.208 10.917 6.734-.194c.177 0 .351.066.502.194.15.127.272.31.35.526.067.207.094.436.075.662-.018.226-.08.44-.18.623L4.174 35.434a1.136 1.136 0 01-.324.405.769.769 0 01-.424.161.803.803 0 01-.37-.103z"/></symbol><symbol id="icon-loupe" viewBox="0 0 512.005 512.005"><path d="M505.749 475.587l-145.6-145.6c28.203-34.837 45.184-79.104 45.184-127.317C405.333 90.926 314.41.003 202.666.003S0 90.925 0 202.669s90.923 202.667 202.667 202.667c48.213 0 92.48-16.981 127.317-45.184l145.6 145.6c4.16 4.16 9.621 6.251 15.083 6.251s10.923-2.091 15.083-6.251c8.341-8.341 8.341-21.824-.001-30.165zM202.667 362.669c-88.235 0-160-71.765-160-160s71.765-160 160-160 160 71.765 160 160-71.766 160-160 160z"/></symbol><symbol id="close" viewBox="0 0 329.269 329"><path d="M194.8 164.77L323.013 36.555c8.343-8.34 8.343-21.825 0-30.164-8.34-8.34-21.825-8.34-30.164 0L164.633 134.605 36.422 6.391c-8.344-8.34-21.824-8.34-30.164 0-8.344 8.34-8.344 21.824 0 30.164l128.21 128.215L6.259 292.984c-8.344 8.34-8.344 21.825 0 30.164a21.266 21.266 0 0015.082 6.25c5.46 0 10.922-2.09 15.082-6.25l128.21-128.214 128.216 128.214a21.273 21.273 0 0015.082 6.25c5.46 0 10.922-2.09 15.082-6.25 8.343-8.34 8.343-21.824 0-30.164zm0 0"/></symbol><symbol id="icon-next" viewBox="0 0 51 16"><path d="M50.707 8.707a1 1 0 000-1.414L44.343.929a1 1 0 10-1.414 1.414L48.586 8l-5.657 5.657a1 1 0 001.414 1.414l6.364-6.364zM0 9h50V7H0v2z"/></symbol><symbol id="icon-prev" viewBox="0 0 51 16"><path d="M.293 7.293a1 1 0 000 1.414l6.364 6.364a1 1 0 001.414-1.414L2.414 8l5.657-5.657A1 1 0 006.657.93L.293 7.293zM51 7H1v2h50V7z"/></symbol><symbol id="menu" viewBox="0 -53 384 384"><path d="M368 154.668H16c-8.832 0-16-7.168-16-16s7.168-16 16-16h352c8.832 0 16 7.168 16 16s-7.168 16-16 16zM368 32H16C7.168 32 0 24.832 0 16S7.168 0 16 0h352c8.832 0 16 7.168 16 16s-7.168 16-16 16zm0 245.332H16c-8.832 0-16-7.168-16-16s7.168-16 16-16h352c8.832 0 16 7.168 16 16s-7.168 16-16 16zm0 0"/></symbol><symbol id="icon-right" viewBox="0 0 8 16"><path d="M0 0l8 8-8 8v-2.667L5.333 8 0 2.667V0z"/></symbol></svg>